<?xml version="1.0" standalone="no"?><!DOCTYPE svg PUBLIC "-//W3C//DTD SVG 1.1//EN" "http://www.w3.org/Graphics/SVG/1.1/DTD/svg11.dtd"><svg t="1767643653293" class="icon" viewBox="0 0 1024 1024" version="1.1" xmlns="http://www.w3.org/2000/svg" p-id="15692" xmlns:xlink="http://www.w3.org/1999/xlink" width="200" height="200"><path d="M223.282141 496.993103c-0.847448-31.073103 4.590345-62.004966 15.889655-90.959448L69.117175 279.58731A463.624828 463.624828 0 0 0 17.670003 496.993103a489.895724 489.895724 0 0 0 51.411862 217.370483l170.054621-126.411034a336.825379 336.825379 0 0 1-15.889656-90.959449" fill="#FBBC05" p-id="15693"></path><path d="M523.843796 204.517517a301.338483 301.338483 0 0 1 184.884965 63.205517l147.879725-142.300689A520.192 520.192 0 0 0 523.843796 2.648276 502.113103 502.113103 0 0 0 69.117175 279.58731l170.054621 126.411035a295.794759 295.794759 0 0 1 284.672-201.833931" fill="#EA4335" p-id="15694"></path><path d="M523.843796 789.786483a295.794759 295.794759 0 0 1-284.672-201.869242l-170.054621 126.446345a509.492966 509.492966 0 0 0 454.726621 276.939035 489.154207 489.154207 0 0 0 328.315586-122.738759l-163.416276-122.385655a314.262069 314.262069 0 0 1-165.95862 43.608276" fill="#34A853" p-id="15695"></path><path d="M523.843796 406.033655v189.651862h272.878345a221.819586 221.819586 0 0 1-102.788414 147.915035l-4.06069 4.060689 162.286345 122.738759 4.096-4.06069c91.312552-79.872 150.068966-207.059862 150.068966-369.346207a383.399724 383.399724 0 0 0-11.793656-90.959448h-470.686896z" fill="#4285F4" p-id="15696"></path></svg>